# xmcd
#
# Track frame offsets: 
#        150
#        31274
#        52125
#
# Disc length: 955 seconds
#
# Revision: 1
# Processed by: cddbd v1.5.2PL0 Copyright (c) Steve Scherf et al.
# Submitted via: ExactAudioCopyFreeDBPlugin 1.0
#
DISCID=2103b903
DTITLE=鍾氏兄弟 - 鍾氏兄弟 - 極 Edge_BONUS TRACK
DYEAR=2014
DGENRE=Folk
TTITLE0=未來的未來(feat.李壽全)
TTITLE1=A Beautiful Story (Instrumental)
TTITLE2=心曲 (feat. 辛尼哥哥)
EXTD=
EXTT0=
EXTT1=
EXTT2=
PLAYORDER=
